# xmcd
#
# Track frame offsets:
#	150
#	21595
#	39934
#	61833
#	86551
#	107609
#	130331
#	154276
#	174398
#	194123
#	214541
#	234978
#	255787
#	276371
#	297398
#	313841
#	332658
#
# Disc length: 4771 seconds
#
# Revision: 2
# Processed by: cddbd v1.5.2PL0 Copyright (c) Steve Scherf et al.
# Submitted via: audiograbber 1.80
#
DISCID=f412a111
DTITLE=Puerto Rican Power - Recopilacion Marcelo Galvez
DYEAR=2004
DGENRE=Salsa
TTITLE0=Asi la quiero
TTITLE1=Contigo
TTITLE2=El Instinto
TTITLE3=Emergencia de amor
TTITLE4=Hazme Tu Juguete 
TTITLE5=Juguete de nadie
TTITLE6=La feria de cali 
TTITLE7=Mañana que mas da
TTITLE8=Me Tiene Loco
TTITLE9=Me Toco Sufrir
TTITLE10=Otro poco
TTITLE11=Pena de amor
TTITLE12=Se te fue la Mano
TTITLE13=Solo Con Ella
TTITLE14=Te Necesito Mi Amor
TTITLE15=Tu cariñito
TTITLE16=Tu cariñito (remix)
EXTD=YEAR: 2004 SALSA
EXTT0=
EXTT1=
EXTT2=
EXTT3=
EXTT4=
EXTT5=
EXTT6=
EXTT7=
EXTT8=
EXTT9=
EXTT10=
EXTT11=
EXTT12=
EXTT13=
EXTT14=
EXTT15=
EXTT16=
PLAYORDER=
